PathFileType  4	(X/Y/Z) C:\Users\antoi\Documents\MyRepositories\mobilecap\ResultsAnalysis
DataRate	CameraRate	NumFrames	NumMarkers	Units	OrigDataRate	OrigDataStartFrame	OrigNumFrames
100.0	100.0	4	51	mm	100.0	55	145
Frame#	Time	r_knee			r_shank_antsup			r_ankle			r_calc			r_5meta			r_toe			L_knee			L_shank_antsup			L_ankle			L_calc			L_5meta			L_toe			r_sh2			r_sh3			r_sh4			L_sh2			L_sh3			r_thigh1			r_thigh2			r_thigh3			r_thigh4			r_thigh5			L_thigh1			L_thigh2			L_thigh3			L_thigh4			r.ASIS			r.PSIS			L.ASIS			L.PSIS			C7			R_Shoulder			L_Shoulder			R_Sternum			L_Sternum			R_humerus			R_elbow_med			R_elbow_lat			R_forearm			R_wrist_radius			R_wrist_ulna			L_humerus			L_elbow_med			L_elbow_lat			L_forearm			L_wrist_radius			L_wrist_ulna			R_HJC			L_HJC			R_HJC_reg			L_HJC_reg			
		X1	Y1	Z1	X2	Y2	Z2	X3	Y3	Z3	X4	Y4	Z4	X5	Y5	Z5	X6	Y6	Z6	X7	Y7	Z7	X8	Y8	Z8	X9	Y9	Z9	X10	Y10	Z10	X11	Y11	Z11	X12	Y12	Z12	X13	Y13	Z13	X14	Y14	Z14	X15	Y15	Z15	X16	Y16	Z16	X17	Y17	Z17	X18	Y18	Z18	X19	Y19	Z19	X20	Y20	Z20	X21	Y21	Z21	X22	Y22	Z22	X23	Y23	Z23	X24	Y24	Z24	X25	Y25	Z25	X26	Y26	Z26	X27	Y27	Z27	X28	Y28	Z28	X29	Y29	Z29	X30	Y30	Z30	X31	Y31	Z31	X32	Y32	Z32	X33	Y33	Z33	X34	Y34	Z34	X35	Y35	Z35	X36	Y36	Z36	X37	Y37	Z37	X38	Y38	Z38	X39	Y39	Z39	X40	Y40	Z40	X41	Y41	Z41	X42	Y42	Z42	X43	Y43	Z43	X44	Y44	Z44	X45	Y45	Z45	X46	Y46	Z46	X47	Y47	Z47	X48	Y48	Z48	X49	Y49	Z49	X50	Y50	Z50	X51	Y51	Z51	

55	0.54000000	258.68808	485.03103	-50.79686	279.31515	409.75332	-84.37315	135.57380	95.66133	-96.24240	58.18677	70.04775	-110.27438	243.47899	43.33614	-99.74102	270.97111	69.51321	-169.20213	537.60106	511.91901	-297.86887	608.60258	446.85161	-295.55667	673.51622	133.99337	-295.12932	620.57323	68.98945	-263.96349	802.11168	116.90000	-305.16588	818.85453	155.88568	-245.35663	236.90064	302.25629	-64.02725	216.74704	433.75225	-34.03956	173.83095	329.77316	-34.88179	523.38768	423.71036	-316.66215	570.14731	310.20521	-327.77356	389.35425	779.88897	-0.42833	360.25549	671.90585	-21.57033	303.50699	659.60222	9.30591	280.83174	800.21540	28.22059	253.97811	687.53758	4.13920	447.42932	758.28259	-347.04643	512.18047	639.81315	-320.16815	347.61212	708.46471	-312.44803	418.65721	587.82719	-299.37900	417.89676	958.23180	-24.93222	233.00048	997.33092	-119.58060	437.77964	947.08862	-275.17265	231.44950	995.36636	-220.32766	237.53491	1408.28120	-157.56459	349.81669	1366.27375	10.58256	299.78495	1378.48637	-340.81798	376.56854	1370.58830	-147.67455	378.89038	1371.81434	-190.77707	386.85129	1237.96641	70.13144	356.77796	1017.17919	55.27377	394.69601	1042.11386	111.99039	496.12886	943.43007	88.73269	562.91703	828.95881	76.19583	557.99541	820.80890	110.50094	307.09271	1269.67372	-412.31605	192.09996	1059.15063	-408.13152	246.42611	1071.83179	-463.08565	278.63714	959.37192	-438.83811	268.25809	801.48491	-446.38359	274.47958	807.56441	-480.62023	341.53144	878.78425	-53.45996	356.67640	873.52816	-259.30791	353.60303	882.92955	-57.29887	351.04707	879.69648	-223.09343	
56	0.55000000	266.25052	483.27997	-51.80546	285.72675	407.53862	-85.76249	136.38395	96.15336	-96.94658	58.33617	70.42818	-110.62806	243.53461	43.36482	-99.90693	271.29387	69.03834	-169.56619	549.45555	508.62919	-298.29232	621.46141	445.27980	-295.63593	697.03301	134.31870	-291.06098	646.75127	67.52667	-258.61742	826.44079	121.47639	-300.91116	841.64822	162.19794	-241.94851	241.76995	300.74605	-65.16151	223.93586	432.52318	-34.93960	179.32572	329.26627	-35.59124	536.96216	419.09528	-316.23783	587.49473	306.98336	-326.05675	399.95721	776.73693	-0.74029	369.53022	669.13334	-22.03016	312.92192	657.29271	8.66789	291.62720	798.04868	28.07490	263.81801	685.57947	3.36685	461.55142	756.06562	-347.30923	525.11495	636.98663	-320.18021	360.86000	706.65777	-314.31132	431.33177	585.37966	-301.42985	429.78989	954.98012	-24.80065	245.50291	994.47521	-120.61116	451.44501	944.32329	-274.91907	244.59388	992.59522	-221.41369	249.63686	1405.47107	-158.49545	361.46099	1363.85415	10.20759	312.80783	1375.66130	-341.56237	388.69285	1368.20805	-148.07053	391.21261	1369.32049	-191.05677	399.19717	1235.63222	69.59245	372.58656	1014.39348	53.21845	410.17258	1039.63274	110.07974	513.56327	943.15547	85.49633	582.52497	830.18505	71.42924	578.02301	821.65065	105.69606	319.60645	1266.77873	-412.86913	201.42933	1058.03153	-408.61233	255.85539	1069.89055	-463.57587	286.44037	956.99553	-439.69981	273.08345	799.23039	-447.60211	279.46361	805.28295	-481.81208	353.53880	875.66659	-53.99445	370.09504	870.78564	-259.74434	365.64442	879.97378	-57.64106	364.14629	876.88084	-223.45147	
57	0.56000000	274.18115	481.51403	-52.81337	292.45694	405.24795	-87.05563	137.27269	96.76621	-97.50410	58.57662	71.01424	-110.94816	243.60825	43.34871	-100.05042	271.68609	68.57649	-169.86244	561.97396	505.67710	-298.37850	634.13328	443.35539	-295.67249	717.29526	133.91114	-287.02275	669.16420	65.95022	-253.10015	847.22674	124.24078	-297.14092	861.39420	166.59733	-239.13561	246.81997	299.25087	-66.17623	231.44501	431.32754	-35.82851	185.03628	328.87577	-36.26722	550.11527	414.90850	-315.41900	603.23068	303.81394	-324.03881	410.85826	773.60214	-1.13944	379.24476	666.34358	-22.52789	322.69639	654.96666	8.01346	302.73877	795.84364	27.87456	273.99101	683.56702	2.57987	476.27093	754.15636	-347.50606	538.83984	634.63790	-319.87831	374.85467	705.07687	-316.30712	444.86580	583.21915	-303.31774	441.94658	951.72657	-24.76383	258.11589	991.57657	-121.64902	465.10587	941.65916	-274.79363	257.75821	989.82531	-222.50026	261.91428	1402.73256	-159.42627	373.43481	1361.52776	9.75586	325.95619	1372.80377	-342.37547	400.99668	1365.87048	-148.55891	403.68520	1366.86833	-191.42582	411.79310	1233.38778	68.99717	388.33705	1011.78694	51.17797	425.62075	1037.29006	108.12815	530.79284	942.92905	82.20263	601.65877	831.38586	66.59800	597.69241	822.52628	100.84501	332.32712	1263.78108	-413.38917	211.01251	1056.85016	-409.05545	265.55341	1067.88454	-463.97716	294.51691	954.60953	-440.44810	278.26463	797.01259	-448.70340	284.81352	803.02996	-482.88362	365.76888	872.53420	-54.63088	383.57884	868.10153	-260.28787	377.92708	876.98630	-58.05572	377.33729	874.10575	-223.88780	
58	0.57000000	282.47889	479.75528	-53.82355	299.53414	402.91329	-88.23865	138.26827	97.53153	-97.90159	58.94689	71.91853	-111.21894	243.71414	43.27299	-100.16062	272.16095	68.10956	-170.07316	575.19486	503.11749	-297.98639	646.75382	441.07226	-295.47489	734.18226	132.55530	-283.24123	687.55542	64.01613	-247.90443	864.43181	124.85492	-293.85826	878.04290	168.62583	-236.77050	252.07373	297.81688	-67.05777	239.28367	430.19293	-36.72165	190.97046	328.64358	-36.91192	562.94069	411.26815	-314.15617	617.36603	300.70801	-321.76953	422.05009	770.51053	-1.63421	389.40279	663.56272	-23.08092	332.82185	652.65335	7.31151	314.12544	793.62591	27.59210	284.46496	681.54901	1.74330	491.49936	752.52770	-347.54180	553.28207	632.74434	-319.20558	389.49138	703.62741	-318.33516	459.18041	581.33688	-304.86592	454.37418	948.53510	-24.83130	270.87221	988.68742	-122.70958	478.77393	939.16351	-274.81130	270.97617	987.11082	-223.59306	274.37555	1400.10495	-160.33955	385.77175	1359.32462	9.21564	339.21226	1369.96899	-343.23564	413.49452	1363.59282	-149.13450	416.31539	1364.48977	-191.88587	424.69966	1231.27354	68.32613	404.07461	1009.39986	49.16736	441.05977	1035.13208	106.15760	547.81425	942.75939	78.86977	620.33667	832.56219	61.73899	616.98128	823.42291	95.97369	345.21600	1260.73632	-413.87851	220.84562	1055.63738	-409.44507	275.52962	1065.84370	-464.27116	302.84068	952.23115	-441.06491	283.82560	794.85359	-449.68670	290.55724	800.83938	-483.83743	378.24591	869.44587	-55.38024	397.15415	865.53773	-260.95110	390.46816	874.02580	-58.55409	390.63859	871.43269	-224.41790	
